<svg id="Calque_1" data-name="Calque 1" xmlns="http://www.w3.org/2000/svg" xmlns:xlink="http://www.w3.org/1999/xlink" viewBox="0 0 282.03 390.71"><defs><style>.cls-1{fill:url(#Dégradé_sans_nom_4);}.cls-2{fill:url(#Dégradé_sans_nom_8);}.cls-3{fill:url(#Dégradé_sans_nom_16);}</style><linearGradient id="Dégradé_sans_nom_4" x1="835.59" y1="584.47" x2="1068.65" y2="584.47" gradientUnits="userSpaceOnUse"><stop offset="0" stop-color="#b7e4c7"/><stop offset="0.18" stop-color="#b3e1c4"/><stop offset="0.35" stop-color="#a8d7ba"/><stop offset="0.52" stop-color="#95c6aa"/><stop offset="0.68" stop-color="#7baf93"/><stop offset="0.84" stop-color="#599075"/><stop offset="0.99" stop-color="#2f6c51"/><stop offset="1" stop-color="#2d6a4f"/></linearGradient><linearGradient id="Dégradé_sans_nom_8" x1="843.33" y1="606.47" x2="986.55" y2="358.4" gradientUnits="userSpaceOnUse"><stop offset="0" stop-color="#d8f3dc"/><stop offset="0.18" stop-color="#d4f1da"/><stop offset="0.36" stop-color="#c9ecd3"/><stop offset="0.52" stop-color="#b6e4c7"/><stop offset="0.69" stop-color="#9cd8b6"/><stop offset="0.85" stop-color="#7ac9a1"/><stop offset="1" stop-color="#52b788"/></linearGradient><linearGradient id="Dégradé_sans_nom_16" x1="931.19" y1="644.48" x2="1101.23" y2="644.48" gradientUnits="userSpaceOnUse"><stop offset="0" stop-color="#52b788"/><stop offset="0.21" stop-color="#56b98a"/><stop offset="0.41" stop-color="#61be91"/><stop offset="0.6" stop-color="#74c69d"/><stop offset="0.78" stop-color="#8ed2ae"/><stop offset="0.97" stop-color="#b0e1c3"/><stop offset="1" stop-color="#b7e4c7"/></linearGradient></defs><title>watapp-logo-svg</title><path class="cls-1" d="M1036.34,446.58c9.32,16,19.22,31.71,27.78,48.11,8.84,16.93,4.3,36.26-9.9,50.06-15.29,14.87-33.55,25.26-52.16,35.14-24,12.74-48.49,24.6-71.92,38.29a112.4,112.4,0,0,0-37.7,36.33c-7.09,11-11,23-9,35.95,1.94,12.17,8.82,21.91,18.21,29.83.46.39.91.8,2.33,2.06-2.11-.42-20.62-10.12-28.19-15.89a143.46,143.46,0,0,1-22.58-20.77,73,73,0,0,1-16.51-33.44c-4.3-22,3.59-40.17,16.81-56.92,11.67-14.78,26.76-25.38,43.13-33.91,23.92-12.47,48.5-23.67,72.54-35.9,18.54-9.43,37.09-18.85,52.25-33.79a50.56,50.56,0,0,0,13.4-22.07A51.83,51.83,0,0,0,1036.34,446.58Z" transform="translate(-819.2 -343.39)"/><path class="cls-2" d="M960.55,343.39c11.22,12.75,20.92,26,26.61,41.47,3.79,10.29,6.9,21.36,7.33,32.21a54.49,54.49,0,0,1-11.63,35.6c-9.84,12.89-22.4,22.54-35.84,31-12.66,8-21.1,13.1-27.51,16.85-18.92,11.08-20.36,12-26.92,16C868.76,531.14,852.1,541.36,838,559a120.63,120.63,0,0,0-18.8,33.54c1.36-7.66,2.25-15.44,4.17-23,5.92-23.1,16.24-44.47,27.73-65.17,11.23-20.25,23.22-40.11,35.55-59.72,8.28-13.15,17.7-25.59,26.69-38.28,8.15-11.5,16.24-23,24.67-34.34C945.21,362.44,952.86,353.14,960.55,343.39Z" transform="translate(-819.2 -343.39)"/><path class="cls-3" d="M1092.94,554.85a115.83,115.83,0,0,1,8.24,47c-.44,16.36-4.51,31.82-10.64,46.74a139.23,139.23,0,0,1-36.73,51.27c-21.83,19.51-47.45,30.75-76.3,34.06-16.06,1.84-39.64-8.79-44.94-24.87-2.65-8.07-1.42-15.59,3-22.77,6.93-11.36,17.66-18.34,28.89-24.44,22.79-12.39,46.18-23.7,68.65-36.61,18-10.35,35.82-21.41,48.82-38.38,6.32-8.25,9.53-17.61,10.55-27.83C1092.54,558.06,1092.67,557.13,1092.94,554.85Z" transform="translate(-819.2 -343.39)"/></svg>